<svg xmlns="http://www.w3.org/2000/svg" xmlns:xlink="http://www.w3.org/1999/xlink" width="939pt" height="1119pt" viewBox="0.00 0.00 939.00 1119.00">
<g id="graph0" class="graph" transform="scale(1 1) rotate(0) translate(4 1115.33)">
<title>G</title>
<polygon fill="white" stroke="none" points="-4,4 -4,-1115.33 935.47,-1115.33 935.47,4 -4,4"/>
<!-- 0 -->
<g id="node1" class="node">
<title>0</title>
<ellipse fill="lightgrey" stroke="black" cx="518.73" cy="-1014.59" rx="96.73" ry="96.73"/>
<text xml:space="preserve" text-anchor="middle" x="518.73" y="-1029.59" font-family="Times,serif" font-size="50.00">0</text>
<text xml:space="preserve" text-anchor="middle" x="518.73" y="-969.59" font-family="Times,serif" font-size="50.00">(0.71)</text>
</g>
<!-- 1 -->
<g id="node2" class="node">
<title>1</title>
<ellipse fill="lightgrey" stroke="black" cx="360.73" cy="-785.13" rx="96.73" ry="96.73"/>
<text xml:space="preserve" text-anchor="middle" x="360.73" y="-800.13" font-family="Times,serif" font-size="50.00">1</text>
<text xml:space="preserve" text-anchor="middle" x="360.73" y="-740.13" font-family="Times,serif" font-size="50.00">(0.67)</text>
</g>
<!-- 0&#45;&gt;1 -->
<g id="edge1" class="edge">
<title>0-&gt;1</title>
<path fill="none" stroke="black" d="M463.92,-934.68C450.45,-915.29 435.95,-894.41 422.19,-874.61"/>
<polygon fill="black" stroke="black" points="425.16,-872.75 416.58,-866.54 419.41,-876.75 425.16,-872.75"/>
</g>
<!-- 2 -->
<g id="node3" class="node">
<title>2</title>
<ellipse fill="lightgrey" stroke="black" cx="676.73" cy="-785.13" rx="96.73" ry="96.73"/>
<text xml:space="preserve" text-anchor="middle" x="676.73" y="-800.13" font-family="Times,serif" font-size="50.00">2</text>
<text xml:space="preserve" text-anchor="middle" x="676.73" y="-740.13" font-family="Times,serif" font-size="50.00">(0.72)</text>
</g>
<!-- 0&#45;&gt;2 -->
<g id="edge2" class="edge">
<title>0-&gt;2</title>
<path fill="none" stroke="black" d="M573.55,-934.68C587.02,-915.29 601.52,-894.41 615.27,-874.61"/>
<polygon fill="black" stroke="black" points="618.05,-876.75 620.88,-866.54 612.3,-872.75 618.05,-876.75"/>
</g>
<!-- 4 -->
<g id="node5" class="node">
<title>4</title>
<ellipse fill="lightgrey" stroke="black" cx="96.73" cy="-555.66" rx="96.73" ry="96.73"/>
<text xml:space="preserve" text-anchor="middle" x="96.73" y="-570.66" font-family="Times,serif" font-size="50.00">4</text>
<text xml:space="preserve" text-anchor="middle" x="96.73" y="-510.66" font-family="Times,serif" font-size="50.00">(0.72)</text>
</g>
<!-- 1&#45;&gt;4 -->
<g id="edge4" class="edge">
<title>1-&gt;4</title>
<path fill="none" stroke="black" d="M286.1,-723.52C259.27,-701.41 228.92,-676.03 201.73,-652.4 193.27,-645.04 184.5,-637.27 175.8,-629.48"/>
<polygon fill="black" stroke="black" points="178.39,-627.1 168.61,-623.02 173.71,-632.31 178.39,-627.1"/>
</g>
<!-- 5 -->
<g id="node6" class="node">
<title>5</title>
<ellipse fill="lightgrey" stroke="black" cx="307.73" cy="-555.66" rx="96.73" ry="96.73"/>
<text xml:space="preserve" text-anchor="middle" x="307.73" y="-570.66" font-family="Times,serif" font-size="50.00">5</text>
<text xml:space="preserve" text-anchor="middle" x="307.73" y="-510.66" font-family="Times,serif" font-size="50.00">(0.66)</text>
</g>
<!-- 1&#45;&gt;5 -->
<g id="edge5" class="edge">
<title>1-&gt;5</title>
<path fill="none" stroke="black" d="M338.95,-690.63C336.69,-680.92 334.38,-671.01 332.09,-661.2"/>
<polygon fill="black" stroke="black" points="335.54,-660.59 329.86,-651.65 328.72,-662.18 335.54,-660.59"/>
</g>
<!-- 6 -->
<g id="node7" class="node">
<title>6</title>
<ellipse fill="orange" stroke="black" cx="518.73" cy="-555.66" rx="96.73" ry="96.73"/>
<text xml:space="preserve" text-anchor="middle" x="518.73" y="-570.66" font-family="Times,serif" font-size="50.00">6</text>
<text xml:space="preserve" text-anchor="middle" x="518.73" y="-510.66" font-family="Times,serif" font-size="50.00">(0.72)</text>
</g>
<!-- 1&#45;&gt;6 -->
<g id="edge6" class="edge">
<title>1-&gt;6</title>
<path fill="none" stroke="black" d="M415.55,-705.21C429.02,-685.83 443.52,-664.95 457.27,-645.14"/>
<polygon fill="black" stroke="black" points="460.05,-647.28 462.88,-637.07 454.3,-643.29 460.05,-647.28"/>
</g>
<!-- 3 -->
<g id="node4" class="node">
<title>3</title>
<ellipse fill="cyan" stroke="black" cx="729.73" cy="-555.66" rx="96.73" ry="96.73"/>
<text xml:space="preserve" text-anchor="middle" x="729.73" y="-570.66" font-family="Times,serif" font-size="50.00">3</text>
<text xml:space="preserve" text-anchor="middle" x="729.73" y="-510.66" font-family="Times,serif" font-size="50.00">(0.77)</text>
</g>
<!-- 2&#45;&gt;3 -->
<g id="edge3" class="edge">
<title>2-&gt;3</title>
<path fill="none" stroke="black" d="M698.52,-690.63C700.78,-680.92 703.09,-671.01 705.38,-661.2"/>
<polygon fill="black" stroke="black" points="708.74,-662.18 707.6,-651.65 701.92,-660.59 708.74,-662.18"/>
</g>
<!-- 7 -->
<g id="node8" class="node">
<title>7</title>
<ellipse fill="lightgrey" stroke="black" cx="201.73" cy="-326.2" rx="96.73" ry="96.73"/>
<text xml:space="preserve" text-anchor="middle" x="201.73" y="-341.2" font-family="Times,serif" font-size="50.00">7</text>
<text xml:space="preserve" text-anchor="middle" x="201.73" y="-281.2" font-family="Times,serif" font-size="50.00">(0.66)</text>
</g>
<!-- 6&#45;&gt;7 -->
<g id="edge7" class="edge">
<title>6-&gt;7</title>
<path fill="none" stroke="black" d="M451.35,-485.93C439.45,-475.99 426.7,-466.56 413.73,-458.93 370.49,-433.48 349.98,-448.38 306.73,-422.93 296.9,-417.15 287.2,-410.33 277.9,-403.04"/>
<polygon fill="black" stroke="black" points="280.27,-400.45 270.29,-396.88 275.86,-405.9 280.27,-400.45"/>
</g>
<!-- 8 -->
<g id="node9" class="node">
<title>8</title>
<ellipse fill="orange" stroke="black" cx="412.73" cy="-326.2" rx="96.73" ry="96.73"/>
<text xml:space="preserve" text-anchor="middle" x="412.73" y="-341.2" font-family="Times,serif" font-size="50.00">8</text>
<text xml:space="preserve" text-anchor="middle" x="412.73" y="-281.2" font-family="Times,serif" font-size="50.00">(0.71)</text>
</g>
<!-- 6&#45;&gt;8 -->
<g id="edge8" class="edge">
<title>6-&gt;8</title>
<path fill="none" stroke="black" d="M478.05,-467.37C471.52,-453.36 464.73,-438.78 458.1,-424.55"/>
<polygon fill="black" stroke="black" points="461.34,-423.22 453.94,-415.63 454.99,-426.17 461.34,-423.22"/>
</g>
<!-- 10 -->
<g id="node11" class="node">
<title>10</title>
<ellipse fill="lightgrey" stroke="black" cx="623.73" cy="-326.2" rx="96.73" ry="96.73"/>
<text xml:space="preserve" text-anchor="middle" x="623.73" y="-341.2" font-family="Times,serif" font-size="50.00">10</text>
<text xml:space="preserve" text-anchor="middle" x="623.73" y="-281.2" font-family="Times,serif" font-size="50.00">(0.66)</text>
</g>
<!-- 6&#45;&gt;10 -->
<g id="edge10" class="edge">
<title>6-&gt;10</title>
<path fill="none" stroke="black" d="M559.03,-467.37C565.45,-453.46 572.13,-438.99 578.65,-424.85"/>
<polygon fill="black" stroke="black" points="581.72,-426.55 582.74,-416.01 575.37,-423.62 581.72,-426.55"/>
</g>
<!-- 12 -->
<g id="node13" class="node">
<title>12</title>
<ellipse fill="lightgrey" stroke="black" cx="834.73" cy="-326.2" rx="96.73" ry="96.73"/>
<text xml:space="preserve" text-anchor="middle" x="834.73" y="-341.2" font-family="Times,serif" font-size="50.00">12</text>
<text xml:space="preserve" text-anchor="middle" x="834.73" y="-281.2" font-family="Times,serif" font-size="50.00">(0.66)</text>
</g>
<!-- 6&#45;&gt;12 -->
<g id="edge12" class="edge">
<title>6-&gt;12</title>
<path fill="none" stroke="black" d="M586.13,-485.96C598.03,-476.02 610.77,-466.58 623.73,-458.93 666.58,-433.64 686.89,-448.23 729.73,-422.93 739.55,-417.13 749.25,-410.31 758.55,-403.02"/>
<polygon fill="black" stroke="black" points="760.59,-405.87 766.16,-396.85 756.18,-400.43 760.59,-405.87"/>
</g>
<!-- 9 -->
<g id="node10" class="node">
<title>9</title>
<ellipse fill="lightgrey" stroke="black" cx="306.73" cy="-96.73" rx="96.73" ry="96.73"/>
<text xml:space="preserve" text-anchor="middle" x="306.73" y="-111.73" font-family="Times,serif" font-size="50.00">9</text>
<text xml:space="preserve" text-anchor="middle" x="306.73" y="-51.73" font-family="Times,serif" font-size="50.00">(0.77)</text>
</g>
<!-- 8&#45;&gt;9 -->
<g id="edge9" class="edge">
<title>8-&gt;9</title>
<path fill="none" stroke="black" d="M372.05,-237.9C365.52,-223.89 358.73,-209.31 352.1,-195.08"/>
<polygon fill="black" stroke="black" points="355.34,-193.75 347.94,-186.16 348.99,-196.71 355.34,-193.75"/>
</g>
<!-- 11 -->
<g id="node12" class="node">
<title>11</title>
<ellipse fill="lightgrey" stroke="black" cx="517.73" cy="-96.73" rx="96.73" ry="96.73"/>
<text xml:space="preserve" text-anchor="middle" x="517.73" y="-111.73" font-family="Times,serif" font-size="50.00">11</text>
<text xml:space="preserve" text-anchor="middle" x="517.73" y="-51.73" font-family="Times,serif" font-size="50.00">(0.72)</text>
</g>
<!-- 8&#45;&gt;11 -->
<g id="edge11" class="edge">
<title>8-&gt;11</title>
<path fill="none" stroke="black" d="M453.03,-237.9C459.45,-223.99 466.13,-209.52 472.65,-195.39"/>
<polygon fill="black" stroke="black" points="475.72,-197.09 476.74,-186.54 469.37,-194.16 475.72,-197.09"/>
</g>
</g>
</svg>